<svg xmlns="http://www.w3.org/2000/svg" width="51" height="62" viewBox="0 0 51 62"><title>Fill 1</title><path d="M22.69 7.71V.95c0-.53-.42-.95-.94-.95h-1.8c-.53 0-.95.42-.95.95v21.49c0 .95.51 1.56 1.56 1.84.98.26 3.06.7 5.98.7 5.22 0 7.45-2.71 7.45-9.07 0-4.18-.79-8.98-6.95-8.98-1.42 0-2.94.27-4.35.78zm3.8 13.74c-1.66 0-3.07-.16-3.77-.25V10.98c.87-.24 2.47-.6 4.23-.6 2 0 3.21.4 3.21 5.85 0 4.85-1.52 5.22-3.67 5.22zM50.16 22.15c-.09-.54-.53-.87-1.13-.87l-.5.04c-.73.08-2.46.27-4.04.31h-.24c-2.4 0-3.41-.8-3.41-5.78 0-5.07 1.46-5.46 3.51-5.46.72 0 2.52.17 3.59.27.42.04.75.07.89.08h.16c.9 0 1.12-.6 1.17-.87.05-.24.08-.41.12-.73.03-.23.15-.91-.59-1.29-.55-.27-2.54-.85-5.24-.85C39.3 7 37 9.75 37 15.91c0 6.56 2.12 9.11 7.57 9.11 1.94 0 3.74-.33 4.68-.65 1.03-.36 1.13-.99 1.03-1.47zM15.3 7.19C15.3 3.38 12.62 1 8.31 1H1.03C.46 1 0 1.46 0 2.03v21.23c0 .56.46 1.02 1.03 1.02H9.5c3.69 0 6.48-2.84 6.48-6.63 0-2.55-1.08-4.62-2.88-5.63 1.02-.76 2.2-2.2 2.2-4.83zm-6.77 13.6H3.7v-6.85h4.83c2.63 0 3.57 1.83 3.57 3.54 0 2.26-1.13 3.31-3.57 3.31zM3.7 10.49V4.48H8c3.11 0 3.44 2.08 3.44 2.98 0 1.7-1.28 3.03-2.91 3.03zM3.22 35.77H.96v3.12h2.33c.56 0 .99-.12 1.29-.37.3-.25.45-.67.45-1.26 0-.99-.6-1.49-1.81-1.49zm-.1-3.87H.96v2.99h2.25c.54 0 .93-.13 1.18-.4.25-.27.37-.66.37-1.19 0-.5-.13-.86-.39-1.07-.27-.22-.68-.33-1.25-.33zm.04-.9c1.73 0 2.6.73 2.6 2.17 0 .57-.09 1.02-.28 1.35-.18.32-.46.57-.83.75.44.15.78.38 1.02.69.24.31.36.76.36 1.35 0 .89-.24 1.52-.7 1.9-.46.38-1.13.57-2.01.57H0V31zM7.96 36.92h3.28c0-.75-.12-1.29-.37-1.6-.26-.32-.66-.47-1.22-.47-1.13 0-1.69.69-1.69 2.07zm2.66 2.76c.39-.02.71-.03.95-.05l.37-.04.03.77c-.96.13-1.78.2-2.46.2-.92 0-1.56-.26-1.94-.79-.38-.52-.57-1.34-.57-2.45C7 35.11 7.88 34 9.65 34c.85 0 1.49.24 1.91.71.42.48.63 1.23.63 2.25l-.05.73H7.96c.01.68.14 1.2.38 1.52.25.33.68.49 1.29.49.27 0 .61 0 .99-.02zM14 40.44v-6.31h.95v.83c.65-.49 1.38-.81 2.2-.96v.99c-.36.06-.72.17-1.08.31-.37.14-.65.28-.84.39l-.28.17v4.58H14M23.01 34h.93v6.31h-.93v-.4c-.66.35-1.29.53-1.88.53-.85 0-1.42-.22-1.71-.67-.28-.45-.42-1.27-.42-2.48V34h.94v3.28c0 .92.08 1.53.24 1.84.16.32.52.47 1.1.47.24 0 .51-.04.8-.12.29-.08.52-.16.69-.23l.24-.12V34M26.73 34.73v5.44h-.93v-5.44H25v-.87h.8v-.56c0-.89.12-1.5.37-1.82.25-.32.69-.48 1.32-.48l1.28.09-.02.78c-.47-.02-.83-.02-1.07-.02-.36 0-.61.1-.75.3-.13.2-.2.58-.2 1.16v.55h1.85v.87h-1.85M34.56 34.24l-.03.82c-.93-.13-1.67-.2-2.21-.2-.91 0-1.36.31-1.36.95 0 .29.1.5.3.63.2.12.62.23 1.24.32.87.14 1.47.33 1.79.58.32.25.49.66.49 1.25 0 .71-.21 1.22-.63 1.52-.42.3-1.03.45-1.84.45-.23 0-.54-.02-.91-.06-.37-.04-.68-.08-.93-.11l-.38-.07.05-.82c.96.15 1.65.22 2.08.22.55 0 .95-.08 1.21-.24.26-.15.38-.44.38-.85 0-.32-.1-.54-.31-.67-.2-.12-.63-.24-1.28-.34-.82-.12-1.4-.3-1.73-.54-.33-.24-.49-.65-.49-1.24 0-.64.21-1.1.65-1.4.43-.29.97-.44 1.62-.44.28 0 .61.02 1 .07.38.04.69.07.94.11l.35.06M2.11 50.34c.82 0 1.37-.18 1.64-.56.26-.37.4-1.03.4-1.96 0-.84-.11-1.44-.32-1.79-.2-.36-.58-.53-1.13-.53-.24 0-.51.02-.8.08-.3.05-.53.11-.7.17l-.25.09v4.43c.55.05.93.07 1.16.07zm2.48-4.99c.34.49.52 1.3.52 2.45 0 1.26-.22 2.14-.64 2.64-.43.5-1.21.75-2.35.75-.22 0-.51-.01-.87-.04-.35-.02-.65-.05-.88-.06L0 51.05V42h.95v3.04c.63-.28 1.24-.41 1.84-.41.85 0 1.45.24 1.8.72zM7 50.83h.94v-6.31H7zM7 42h.94v1.1H7zM10 51.06h.94V42H10zM14.39 50.09c.25 0 .53-.04.83-.12.3-.08.53-.16.7-.23l.26-.12V45.4c-.7-.1-1.19-.14-1.49-.14-.64 0-1.09.19-1.35.59-.26.4-.39 1.02-.39 1.88 0 .49.04.89.11 1.22.08.32.19.56.34.72.14.15.29.26.44.33.16.06.34.09.55.09zm2.74.74h-.95v-.41c-.65.36-1.29.54-1.92.54-.33 0-.63-.04-.88-.13-.24-.09-.48-.25-.7-.47-.23-.22-.39-.55-.51-1-.11-.45-.17-1-.17-1.65 0-1.14.2-1.97.61-2.51.41-.53 1.09-.8 2.03-.8.48 0 1 .05 1.54.16V42h.95zM23.01 44h.93v6.31h-.93v-.4c-.66.35-1.29.53-1.88.53-.85 0-1.42-.23-1.71-.67-.28-.45-.42-1.27-.42-2.48V44h.94v3.28c0 .92.07 1.53.24 1.84.16.32.52.47 1.09.47.25 0 .52-.04.81-.12.29-.08.52-.16.69-.23l.24-.12V44M26.95 50.44H26v-6.31h.95v.46c.67-.39 1.32-.59 1.96-.59.84 0 1.4.23 1.69.69.28.46.43 1.28.43 2.47v3.28h-.94v-3.29c0-.89-.09-1.49-.26-1.82-.17-.32-.54-.48-1.1-.48-.27 0-.56.04-.85.12-.29.08-.52.16-.68.24l-.25.11v5.12M37.25 50.56c.22.13.32.42.32.88 0 .41-.14.71-.44.89-.29.18-.76.28-1.4.28-.7 0-1.17-.09-1.42-.26s-.37-.48-.37-.93c0-.23.04-.42.14-.58.11-.15.29-.33.56-.53l1.38.07c.61 0 1.02.06 1.23.18zm-2.9-3.36c-.21-.22-.32-.57-.32-1.04 0-.5.12-.85.35-1.07.22-.21.58-.32 1.06-.32.55 0 .93.1 1.14.29.22.19.32.56.32 1.1 0 .5-.11.86-.34 1.07-.22.2-.61.31-1.15.31-.5 0-.86-.12-1.06-.34zm1.37 6.2c1.88 0 2.81-.67 2.81-2 0-.74-.17-1.23-.53-1.48-.35-.25-.99-.38-1.92-.38-.7 0-1.13-.03-1.29-.09-.16-.07-.24-.23-.24-.49 0-.11.08-.35.23-.72.19.04.39.05.62.05.86 0 1.48-.15 1.87-.47.39-.31.58-.86.58-1.66 0-.55-.14-.97-.41-1.26l1.16.02v-.81l-1.85.06-.19-.04c-.12-.04-.29-.06-.52-.09-.21-.03-.42-.04-.6-.04-1.57 0-2.35.72-2.35 2.16 0 .97.33 1.6.98 1.91l-.1.2c-.07.12-.13.27-.2.44-.08.17-.11.28-.11.35 0 .43.11.72.35.87-.37.27-.63.51-.78.73-.16.21-.23.49-.23.84 0 .72.2 1.22.6 1.49.4.28 1.11.41 2.12.41zM44.56 44.24l-.02.82c-.94-.13-1.68-.2-2.22-.2-.9 0-1.36.31-1.36.95 0 .29.1.5.3.63.21.12.62.23 1.24.33.87.13 1.47.32 1.79.57.32.25.49.67.49 1.26 0 .7-.21 1.21-.63 1.51-.42.3-1.03.45-1.84.45-.23 0-.54-.02-.91-.06-.37-.04-.68-.08-.93-.11l-.38-.07.05-.81c.96.14 1.65.21 2.08.21.55 0 .96-.08 1.21-.23.26-.16.39-.45.39-.85 0-.33-.11-.55-.31-.67-.21-.13-.64-.25-1.29-.35-.82-.12-1.4-.3-1.73-.54-.33-.23-.49-.65-.49-1.24 0-.63.22-1.1.65-1.4.43-.29.98-.44 1.63-.44.27 0 .6.02.99.07.38.04.69.07.94.11l.35.06M2.61 55c.17 0 .4.02.69.05.28.03.53.07.73.1l.3.04-.02.82c-.68-.08-1.18-.11-1.49-.11-.72 0-1.21.16-1.46.5-.26.33-.39.92-.39 1.77 0 .96.12 1.62.36 1.97.24.36.74.54 1.49.54l1.5-.11.04.82c-.8.11-1.38.17-1.76.17-.99 0-1.67-.25-2.05-.75-.37-.5-.55-1.38-.55-2.64 0-1.15.2-1.96.6-2.44.4-.49 1.07-.73 2.01-.73M5.96 57.92h3.29c0-.75-.13-1.29-.38-1.6-.26-.32-.66-.47-1.22-.47-1.13 0-1.69.69-1.69 2.07zm2.67 2.76c.38-.02.7-.03.95-.05l.36-.04.03.77c-.96.13-1.77.2-2.46.2-.91 0-1.56-.26-1.94-.78-.38-.53-.57-1.35-.57-2.46C5 56.11 5.88 55 7.65 55c.85 0 1.49.24 1.91.71.42.48.63 1.23.63 2.25l-.05.73H5.96c.01.69.14 1.2.39 1.52.24.33.67.5 1.28.5.28 0 .61-.01 1-.03zM12.95 61.44H12v-6.31h.95v.45c.67-.38 1.33-.58 1.95-.58.85 0 1.41.23 1.7.69.29.46.43 1.28.43 2.47v3.28h-.94v-3.29c0-.89-.08-1.49-.25-1.82-.18-.32-.54-.48-1.11-.48-.27 0-.56.04-.85.12-.29.08-.52.16-.68.24l-.25.11v5.12M22.84 55.79h-1.99v2.94c0 .72.05 1.2.15 1.42.1.22.35.33.76.33l1.12-.06.05.82c-.56.09-.98.14-1.27.14-.67 0-1.13-.16-1.38-.48-.25-.33-.38-.94-.38-1.83v-3.28H19v-.86h.9V53h.95v1.93h1.99v.86M24.96 57.92h3.29c0-.75-.13-1.29-.38-1.6-.26-.32-.66-.47-1.22-.47-1.13 0-1.69.69-1.69 2.07zm2.67 2.76c.38-.02.7-.03.94-.05l.37-.04.02.77c-.95.13-1.76.2-2.45.2-.92 0-1.56-.26-1.94-.78-.38-.53-.57-1.35-.57-2.46 0-2.21.88-3.32 2.65-3.32.85 0 1.49.24 1.91.71.42.48.63 1.23.63 2.25l-.05.73h-4.18c.01.69.14 1.2.39 1.52.24.33.67.5 1.28.5.28 0 .61-.01 1-.03zM31 61.44v-6.31h.94v.83c.65-.49 1.39-.81 2.2-.96v.99c-.35.06-.71.17-1.07.31-.37.14-.65.28-.85.39l-.28.17v4.58H31M0 28.87h6.02V28H0z" fill="#565656"/></svg>